<svg width="30" height="30" viewBox="0 0 30 30" fill="none" xmlns="http://www.w3.org/2000/svg">
<path d="M15 3.75H10C6.54822 3.75 3.75 6.54822 3.75 10V20C3.75 23.4517 6.54822 26.25 10 26.25H20C23.4517 26.25 26.25 23.4517 26.25 20V10C26.25 6.54822 23.4517 3.75 20 3.75H15Z" stroke="#07294E" stroke-width="2" stroke-linecap="round" stroke-linejoin="round"/>
<path d="M15 10C17.7614 10 20 12.2386 20 15C20 17.7614 17.7614 20 15 20C12.2386 20 10 17.7614 10 15C10 12.2386 12.2386 10 15 10Z" stroke="#07294E" stroke-width="2" stroke-linecap="round" stroke-linejoin="round"/>
<path d="M21.25 10.625C22.2855 10.625 23.125 9.78553 23.125 8.75C23.125 7.71447 22.2855 6.875 21.25 6.875C20.2145 6.875 19.375 7.71447 19.375 8.75C19.375 9.78553 20.2145 10.625 21.25 10.625Z" fill="#07294E"/>
</svg>
