<svg width="43" height="43" viewBox="0 0 43 43" fill="none" xmlns="http://www.w3.org/2000/svg">
<rect x="6" y="6" width="30" height="30" fill="#D0DBE8"/>
<path d="M25.6854 27.2934L15.3652 16.408C15.0125 16.0361 15.0286 15.4353 15.4005 15.0826C15.7724 14.73 16.3732 14.746 16.7258 15.118L27.0461 26.0033C27.3987 26.3753 27.3827 26.9761 27.0108 27.3287C26.6389 27.6813 26.0381 27.6653 25.6854 27.2934Z" fill="#3C506A"/>
<path d="M15.0827 27.0108C14.7301 26.6389 14.7461 26.0381 15.118 25.6855L26.0034 15.3652C26.3753 15.0126 26.9761 15.0286 27.3287 15.4005C27.6813 15.7724 27.6653 16.3733 27.2934 16.7259L16.408 27.0462C16.0361 27.3988 15.4353 27.3828 15.0827 27.0108Z" fill="#3C506A"/>
</svg>
