<svg width="31" height="30" viewBox="0 0 31 30" fill="none" xmlns="http://www.w3.org/2000/svg">
<g clip-path="url(#clip0_69_59)">
<path d="M26.7656 2.92406C26.0215 2.23851 23.0098 0.0529663 16.2949 0.0236694C16.2949 0.0236694 8.3789 -0.45094 4.52344 3.08812C2.3789 5.23265 1.62304 8.37914 1.54101 12.2756C1.45898 16.1721 1.35937 23.4729 8.39648 25.4534H8.40234L8.39648 28.4768C8.39648 28.4768 8.34961 29.7014 9.1582 29.9475C10.1309 30.2522 10.7051 29.3205 11.6367 28.3186C12.1465 27.7678 12.8496 26.9592 13.3828 26.344C18.1992 26.7483 21.8965 25.8225 22.3184 25.6877C23.291 25.3713 28.793 24.6682 29.6836 17.3674C30.6094 9.83226 29.2383 5.07445 26.7656 2.92406ZM27.5801 16.8166C26.8242 22.9104 22.3652 23.2971 21.5449 23.5608C21.1934 23.6721 17.9414 24.4807 13.8574 24.217C13.8574 24.217 10.8105 27.8909 9.86133 28.8459C9.55078 29.1565 9.21094 29.1272 9.21679 28.5119C9.21679 28.1077 9.24023 23.4905 9.24023 23.4905C9.23437 23.4905 9.23437 23.4905 9.24023 23.4905C3.27539 21.8381 3.62695 15.6213 3.6914 12.3694C3.75586 9.11742 4.37109 6.4514 6.1875 4.65843C9.45117 1.69945 16.1719 2.1389 16.1719 2.1389C21.8496 2.16234 24.5684 3.87328 25.2012 4.4475C27.293 6.24047 28.3594 10.5295 27.5801 16.8166ZM19.4355 12.0823C19.459 12.5862 18.7031 12.6213 18.6797 12.1174C18.6152 10.8284 18.0117 10.2014 16.7695 10.1311C16.2656 10.1018 16.3125 9.34593 16.8105 9.37523C18.4453 9.46312 19.3535 10.4006 19.4355 12.0823ZM20.625 12.7444C20.6836 10.26 19.1309 8.31468 16.1836 8.09789C15.6855 8.06273 15.7383 7.30687 16.2363 7.34203C19.6348 7.58812 21.4453 9.92601 21.3809 12.762C21.375 13.2659 20.6133 13.2424 20.625 12.7444ZM23.3789 13.5295C23.3848 14.0334 22.623 14.0393 22.623 13.5354C22.5879 8.76 19.4062 6.15843 15.5449 6.12914C15.0469 6.12328 15.0469 5.37328 15.5449 5.37328C19.8633 5.40258 23.3379 8.385 23.3789 13.5295ZM22.7168 19.2776V19.2893C22.084 20.4026 20.9004 21.633 19.6816 21.2405L19.6699 21.2229C18.4336 20.8772 15.5215 19.3772 13.6816 17.9123C12.7324 17.1623 11.8652 16.2776 11.1973 15.428C10.5937 14.6721 9.98437 13.7756 9.39258 12.6975C8.14453 10.4416 7.86914 9.43383 7.86914 9.43383C7.47656 8.21508 8.70117 7.03148 9.82031 6.39867H9.83203C10.3711 6.11742 10.8867 6.21117 11.2324 6.62718C11.2324 6.62718 11.959 7.49437 12.2695 7.92211C12.5625 8.32054 12.9551 8.95922 13.1602 9.31664C13.5176 9.95531 13.2949 10.6057 12.9434 10.8752L12.2402 11.4377C11.8828 11.7248 11.9297 12.258 11.9297 12.258C11.9297 12.258 12.9727 16.2014 16.8691 17.1975C16.8691 17.1975 17.4023 17.2444 17.6895 16.887L18.252 16.1838C18.5215 15.8323 19.1719 15.6096 19.8105 15.967C20.6719 16.4534 21.7676 17.2092 22.4941 17.8948C22.9043 18.2287 22.998 18.7385 22.7168 19.2776Z" fill="#07294E"/>
</g>
<defs>
<clipPath id="clip0_69_59">
<rect width="30" height="30" fill="white" transform="translate(0.75)"/>
</clipPath>
</defs>
</svg>
