<svg width="34" height="30" viewBox="0 0 34 30" fill="none" xmlns="http://www.w3.org/2000/svg">
<path d="M31.9336 6.89648C32.1504 6.16406 31.9336 5.625 30.8906 5.625H27.4395C26.5605 5.625 26.1562 6.08789 25.9395 6.60352C25.9395 6.60352 24.1816 10.8867 21.6973 13.6641C20.8945 14.4668 20.5254 14.7246 20.0859 14.7246C19.8691 14.7246 19.5352 14.4668 19.5352 13.7344V6.89648C19.5352 6.01758 19.2891 5.625 18.5625 5.625H13.1367C12.5859 5.625 12.2578 6.03516 12.2578 6.41602C12.2578 7.24805 13.5 7.44141 13.6289 9.78516V14.8711C13.6289 15.9844 13.4297 16.1895 12.9902 16.1895C11.8184 16.1895 8.9707 11.8887 7.2832 6.9668C6.94336 6.01172 6.60938 5.625 5.72461 5.625H2.27344C1.28906 5.625 1.08984 6.08789 1.08984 6.60352C1.08984 7.51758 2.26172 12.0586 6.54492 18.0586C9.39844 22.1543 13.418 24.375 17.0742 24.375C19.2715 24.375 19.541 23.8828 19.541 23.0332C19.541 19.1191 19.3418 18.75 20.4434 18.75C20.9531 18.75 21.832 19.0078 23.8828 20.9824C26.2266 23.3262 26.6133 24.375 27.9258 24.375H31.377C32.3613 24.375 32.8594 23.8828 32.5723 22.9102C31.916 20.8652 27.4805 16.6582 27.2812 16.377C26.7715 15.7207 26.918 15.4277 27.2812 14.8418C27.2871 14.8359 31.5 8.90625 31.9336 6.89648Z" fill="#07294E"/>
</svg>
